<svg width="1040" height="903" viewBox="0 0 1040 903" fill="none" xmlns="http://www.w3.org/2000/svg">
<path d="M106.534 873.045C117.911 868.315 153.29 842.146 153.595 837.834C175.26 807.988 161.811 769.022 161.811 769.022C161.811 769.022 116.651 614.814 143.503 501.065C151.437 467.239 165.778 436.729 189.579 415.173C293.326 320.991 314.075 633.385 470.001 185.686C597.854 -181.759 926.488 -194.03 1040 -186.734V-19.261C893.228 -5.00099 672.918 66.2993 573.748 351.832C418.128 799.532 397.378 487.137 293.326 581.32C269.525 602.875 255.184 633.054 247.25 667.211C228.026 749.124 246.029 851.929 257.625 903H0C14.6466 897.694 94.1265 878.203 106.534 873.045Z" fill="url(#paint0_linear_3765_1082)"/>
<defs>
<linearGradient id="paint0_linear_3765_1082" x1="559.126" y1="1146.15" x2="-91.969" y2="-141.496" gradientUnits="userSpaceOnUse">
<stop stop-color="#351EE0"/>
<stop offset="0.6" stop-color="#3BD4E9"/>
<stop offset="1" stop-color="#3F74EF"/>
</linearGradient>
</defs>
</svg>
