<svg width="703" height="867" viewBox="0 0 703 867" fill="none" xmlns="http://www.w3.org/2000/svg">
<path opacity="0.3" d="M24.2135 850.714C27.0117 854.208 29.936 842.242 30.1478 839.157C45.1839 817.802 30.1478 773.493 30.1478 773.493C30.1478 773.493 -14.0515 658.413 4.58484 577.025C10.091 552.823 36.9097 499.468 53.4282 484.045C125.432 416.656 159.3 660.964 267.518 340.632C356.252 77.7227 469.472 -4.99016 548.253 0.230069L703 0.230069C601.135 10.4332 380.217 268.335 311.389 472.636C203.383 792.968 188.982 569.447 116.767 636.836C100.248 652.259 90.2944 673.852 84.7883 698.292C71.4464 756.901 83.9411 830.458 91.9886 867H7.91321C18.0785 863.203 22.0957 860.206 24.2135 850.714Z" fill="url(#paint0_linear_3765_1146)"/>
<defs>
<linearGradient id="paint0_linear_3765_1146" x1="377.948" y1="1060.23" x2="-186.431" y2="110.825" gradientUnits="userSpaceOnUse">
<stop stop-color="#351EE0"/>
<stop offset="0.6" stop-color="#3BD4E9"/>
<stop offset="1" stop-color="#3F74EF"/>
</linearGradient>
</defs>
</svg>
